<svg xmlns="http://www.w3.org/2000/svg" viewBox="0 0 22 21" enable-background="new 0 0 22 21"><g transform="translate(-1 -1)"><path d="M3.1 11.7h17.7c.1-.3.1-.6.1-.8 0-1.7-1.4-3.1-3.1-3.1h-.2l-.8.1-.2-.8C16 5 14.2 3.5 12.1 3.5S8.2 5 7.6 7.1l-.1.9-.9-.2c-.2 0-.3-.1-.5-.1C4.4 7.8 3 9.2 3 10.9c0 .2 0 .5.1.8zm19.1 2H1.8l-.3-.5c-.3-.8-.5-1.6-.5-2.3 0-2.8 2.3-5.1 5-5.1 1-2.6 3.5-4.3 6.2-4.3s5.2 1.7 6.2 4.3C21 6 23 8.2 23 10.9c0 .8-.2 1.6-.6 2.3l-.2.5zM8 18.5c0-.3-.2-.5-.5-.5s-.5.2-.5.5.2.5.5.5.5-.2.5-.5zm2.5.5H8.9s0 .1-.1.1l1.1 1.1-.6.8-1.1-1.1s-.1 0-.1.1v1.6H7V20s-.1 0-.1-.1L5.7 21l-.7-.7 1.1-1.1s0-.1-.1-.1H4.5v-1h1.6s0-.1.1-.1L5 16.7l.7-.7 1.1 1.1s.1 0 .1-.1v-1.6h1V17s.1 0 .1.1L9.3 16l.7.7-1.1 1.1s0 .1.1.1h1.6V19zm1.5-2.1l1.4-1.4 1.4 1.4-1.4 1.4-1.4-1.4zm3.5 3.5l1.4-1.4 1.4 1.4-1.4 1.4-1.4-1.4z" fill-rule="evenodd" clip-rule="evenodd"/><defs><filter id="a" filterUnits="userSpaceOnUse" x="0" y="0" width="24" height="24"><feColorMatrix values="1 0 0 0 0 0 1 0 0 0 0 0 1 0 0 0 0 0 1 0"/></filter></defs><mask maskUnits="userSpaceOnUse" x="0" y="0" width="24" height="24" id="b"><g filter="url(#a)"><path d="M3.1 11.7h17.7c.1-.3.1-.6.1-.8 0-1.7-1.4-3.1-3.1-3.1h-.2l-.8.1-.2-.8C16 5 14.2 3.5 12.1 3.5S8.2 5 7.6 7.1l-.1.9-.9-.2c-.2 0-.3-.1-.5-.1C4.4 7.8 3 9.2 3 10.9c0 .2 0 .5.1.8zm19.1 2H1.8l-.3-.5c-.3-.8-.5-1.6-.5-2.3 0-2.8 2.3-5.1 5-5.1 1-2.6 3.5-4.3 6.2-4.3s5.2 1.7 6.2 4.3C21 6 23 8.2 23 10.9c0 .8-.2 1.6-.6 2.3l-.2.5zM8 18.5c0-.3-.2-.5-.5-.5s-.5.2-.5.5.2.5.5.5.5-.2.5-.5zm2.5.5H8.9s0 .1-.1.1l1.1 1.1-.6.8-1.1-1.1s-.1 0-.1.1v1.6H7V20s-.1 0-.1-.1L5.7 21l-.7-.7 1.1-1.1s0-.1-.1-.1H4.5v-1h1.6s0-.1.1-.1L5 16.7l.7-.7 1.1 1.1s.1 0 .1-.1v-1.6h1V17s.1 0 .1.1L9.3 16l.7.7-1.1 1.1s0 .1.1.1h1.6V19zm1.5-2.1l1.4-1.4 1.4 1.4-1.4 1.4-1.4-1.4zm3.5 3.5l1.4-1.4 1.4 1.4-1.4 1.4-1.4-1.4z" fill-rule="evenodd" clip-rule="evenodd" fill="#fff"/></g></mask><g mask="url(#b)"><path fill-rule="evenodd" clip-rule="evenodd" fill="transparent" d="M0 0h24v24H0z"/></g></g></svg>