<svg xmlns="http://www.w3.org/2000/svg" viewBox="0 0 48 48" enable-background="new 0 0 48 48"><path d="M6.3 23.4h35.5c.2-.6.3-1.1.3-1.7 0-3.4-2.8-6.2-6.2-6.2h-.4l-1.6.1-.4-1.6c-1.1-4.2-4.8-7.1-9-7.1s-7.9 3-9 7.2l-.6 1.9-1.8-.3c-.3-.1-.7-.1-1-.1-3.4 0-6.2 2.8-6.2 6.2.1.5.2 1.1.4 1.6zm38 4H3.7l-.6-1.1c-.7-1.5-1.1-3-1.1-4.6 0-5.6 4.5-10.1 10.1-10.2C14.1 6.4 19 3 24.4 3c5.5 0 10.3 3.5 12.4 8.6 5.2.5 9.2 4.8 9.2 10.1 0 1.6-.4 3.1-1.1 4.6l-.6 1.1zM12 36.7l-2.8-2.8L12 31l2.8 2.8-2.8 2.9zm8 6l-2.8-2.8L20 37l2.8 2.8-2.8 2.9zm8-6l-2.8-2.8L28 31l2.8 2.8-2.8 2.9zm8 6l-2.8-2.8L36 37l2.8 2.8-2.8 2.9z" fill-rule="evenodd" clip-rule="evenodd"/><defs><filter id="a" filterUnits="userSpaceOnUse" x="0" y="0" width="48" height="48"><feColorMatrix values="1 0 0 0 0 0 1 0 0 0 0 0 1 0 0 0 0 0 1 0"/></filter></defs><mask maskUnits="userSpaceOnUse" x="0" y="0" width="48" height="48" id="b"><g filter="url(#a)"><path d="M6.3 23.4h35.5c.2-.6.3-1.1.3-1.7 0-3.4-2.8-6.2-6.2-6.2h-.4l-1.6.1-.4-1.6c-1.1-4.2-4.8-7.1-9-7.1s-7.9 3-9 7.2l-.6 1.9-1.8-.3c-.3-.1-.7-.1-1-.1-3.4 0-6.2 2.8-6.2 6.2.1.5.2 1.1.4 1.6zm38 4H3.7l-.6-1.1c-.7-1.5-1.1-3-1.1-4.6 0-5.6 4.5-10.1 10.1-10.2C14.1 6.4 19 3 24.4 3c5.5 0 10.3 3.5 12.4 8.6 5.2.5 9.2 4.8 9.2 10.1 0 1.6-.4 3.1-1.1 4.6l-.6 1.1zM12 36.7l-2.8-2.8L12 31l2.8 2.8-2.8 2.9zm8 6l-2.8-2.8L20 37l2.8 2.8-2.8 2.9zm8-6l-2.8-2.8L28 31l2.8 2.8-2.8 2.9zm8 6l-2.8-2.8L36 37l2.8 2.8-2.8 2.9z" fill-rule="evenodd" clip-rule="evenodd" fill="#fff"/></g></mask><g mask="url(#b)"><path fill-rule="evenodd" clip-rule="evenodd" fill="transparent" d="M0 0h48v48H0z"/></g></svg>