<svg xmlns="http://www.w3.org/2000/svg" viewBox="0 0 22 21" enable-background="new 0 0 22 21"><g transform="translate(-1 -1)"><path d="M20.7 17.5l-1.7 1 2 3.5 1.7-1-2-3.5zm-8.9-16c-2.7 0-5.2 1.7-6.2 4.3C3 6 1 8.2 1 10.9c0 .7.1 1.4.4 2l.1.3.3.5h4.7l-1.2-2H3.1c-.1-.3-.1-.6-.1-.8 0-1.7 1.4-3.1 3.1-3.1h.2l.8.1.2-.8c.6-2.1 2.4-3.6 4.5-3.6 2 0 3.8 1.4 4.4 3.4l.1.2.2.9.9-.2c.2 0 .3-.1.5-.1 1.7.1 3.1 1.5 3.1 3.2 0 .2 0 .4-.1.6l-.1.2H7.3l2 4H6.2L9.4 21h2.3l-2-3.3h2.9l-2-4h11.6l.3-.5c.3-.8.5-1.5.5-2.3 0-2.8-2.3-5.1-5-5.1-1-2.6-3.5-4.3-6.2-4.3zm3.9 14l-1.7 1 2 3.5 1.7-1-2-3.5z" fill-rule="evenodd" clip-rule="evenodd"/><defs><filter id="a" filterUnits="userSpaceOnUse" x="0" y="0" width="24" height="24"><feColorMatrix values="1 0 0 0 0 0 1 0 0 0 0 0 1 0 0 0 0 0 1 0"/></filter></defs><mask maskUnits="userSpaceOnUse" x="0" y="0" width="24" height="24" id="b"><g filter="url(#a)"><path d="M3.3 17.5l1.7 1L3 22l-1.7-1 2-3.5zm8.9-16c2.7 0 5.2 1.7 6.2 4.3C21 6 23 8.2 23 10.9c0 .7-.1 1.4-.4 2l-.1.3-.3.5h-4.7l1.2-2h2.2c.1-.3.1-.6.1-.8 0-1.7-1.4-3.1-3.1-3.1h-.2l-.8.1-.2-.8c-.6-2.1-2.4-3.6-4.5-3.6-2 0-3.8 1.4-4.4 3.4l-.1.2-.2.9-.9-.2c-.2 0-.3-.1-.5-.1C4.4 7.8 3 9.2 3 10.9c0 .2 0 .4.1.6l.1.2h13.5l-2 4h3.1L14.6 21h-2.3l2-3.3h-2.9l2-4H1.8l-.3-.5c-.3-.8-.5-1.5-.5-2.3 0-2.8 2.3-5.1 5-5.1 1-2.6 3.5-4.3 6.2-4.3zm-3.9 14l1.7 1L8 20l-1.7-1 2-3.5z" fill-rule="evenodd" clip-rule="evenodd" fill="#fff"/></g></mask><g mask="url(#b)"><path fill-rule="evenodd" clip-rule="evenodd" fill="transparent" d="M0 0h24v24H0z"/></g></g></svg>