<svg xmlns="http://www.w3.org/2000/svg" viewBox="0 0 22 20" enable-background="new 0 0 22 20"><g transform="translate(-1 -1)"><path d="M12.2 1.5c2.7 0 5.2 1.7 6.2 4.3C21 6 23 8.2 23 10.9c0 .8-.2 1.6-.6 2.3l-.3.5h-6.7l1.2-2h4.2c.1-.3.1-.6.1-.8 0-1.7-1.4-3.1-3.1-3.1h-.2l-.8.1-.2-.8C16 5 14.2 3.5 12.1 3.5S8.2 5 7.6 7.1l-.1.9-.9-.2c-.2 0-.3-.1-.5-.1C4.4 7.8 3 9.2 3 10.9c0 .3 0 .6.1.8h11.5l-2 4h3.1L12.6 21h-2.3l2-3.3H9.4l2-4H1.8l-.3-.5c-.3-.8-.5-1.5-.5-2.3 0-2.8 2.3-5.1 5-5.1 1-2.6 3.5-4.3 6.2-4.3z" fill-rule="evenodd" clip-rule="evenodd"/><defs><filter id="a" filterUnits="userSpaceOnUse" x="0" y="0" width="24" height="24"><feColorMatrix values="1 0 0 0 0 0 1 0 0 0 0 0 1 0 0 0 0 0 1 0"/></filter></defs><mask maskUnits="userSpaceOnUse" x="0" y="0" width="24" height="24" id="b"><g filter="url(#a)"><path d="M12.2 1.5c2.7 0 5.2 1.7 6.2 4.3C21 6 23 8.2 23 10.9c0 .8-.2 1.6-.6 2.3l-.3.5h-6.7l1.2-2h4.2c.1-.3.1-.6.1-.8 0-1.7-1.4-3.1-3.1-3.1h-.2l-.8.1-.2-.8C16 5 14.2 3.5 12.1 3.5S8.2 5 7.6 7.1l-.1.9-.9-.2c-.2 0-.3-.1-.5-.1C4.4 7.8 3 9.2 3 10.9c0 .3 0 .6.1.8h11.5l-2 4h3.1L12.6 21h-2.3l2-3.3H9.4l2-4H1.8l-.3-.5c-.3-.8-.5-1.5-.5-2.3 0-2.8 2.3-5.1 5-5.1 1-2.6 3.5-4.3 6.2-4.3z" fill-rule="evenodd" clip-rule="evenodd" fill="#fff"/></g></mask><g mask="url(#b)"><path fill-rule="evenodd" clip-rule="evenodd" fill="transparent" d="M0 0h24v24H0z"/></g></g></svg>