<svg xmlns="http://www.w3.org/2000/svg" viewBox="0 0 22 13" enable-background="new 0 0 22 13"><g transform="translate(-1 -6)"><path d="M3.1 16.2h17.7c.1-.3.1-.6.1-.8 0-1.7-1.4-3.1-3.1-3.1h-.2l-.8.1-.2-.8C16.1 9.5 14.3 8 12.2 8c-2.1 0-3.9 1.5-4.5 3.6l-.2.9-.9-.1c-.2 0-.3-.1-.5-.1-1.7 0-3.1 1.4-3.1 3.1 0 .2 0 .5.1.8zm19.1 2H1.8l-.3-.5c-.3-.8-.5-1.6-.5-2.3 0-2.8 2.3-5.1 5-5.1C7 7.7 9.5 6 12.2 6s5.2 1.7 6.2 4.3c2.6.2 4.6 2.4 4.6 5.1 0 .8-.2 1.6-.6 2.3l-.2.5z" fill-rule="evenodd" clip-rule="evenodd"/><defs><filter id="a" filterUnits="userSpaceOnUse" x="0" y="0" width="24" height="24"><feColorMatrix values="1 0 0 0 0 0 1 0 0 0 0 0 1 0 0 0 0 0 1 0"/></filter></defs><mask maskUnits="userSpaceOnUse" x="0" y="0" width="24" height="24" id="b"><g filter="url(#a)"><path d="M3.1 16.2h17.7c.1-.3.1-.6.1-.8 0-1.7-1.4-3.1-3.1-3.1h-.2l-.8.1-.2-.8C16.1 9.5 14.3 8 12.2 8c-2.1 0-3.9 1.5-4.5 3.6l-.2.9-.9-.1c-.2 0-.3-.1-.5-.1-1.7 0-3.1 1.4-3.1 3.1 0 .2 0 .5.1.8zm19.1 2H1.8l-.3-.5c-.3-.8-.5-1.6-.5-2.3 0-2.8 2.3-5.1 5-5.1C7 7.7 9.5 6 12.2 6s5.2 1.7 6.2 4.3c2.6.2 4.6 2.4 4.6 5.1 0 .8-.2 1.6-.6 2.3l-.2.5z" fill-rule="evenodd" clip-rule="evenodd" fill="#fff"/></g></mask><g mask="url(#b)"><path fill-rule="evenodd" clip-rule="evenodd" fill="transparent" d="M0 0h24v24H0z"/></g></g></svg>