<svg xmlns="http://www.w3.org/2000/svg" viewBox="0 0 22 18" enable-background="new 0 0 22 18"><g transform="translate(-1 -1)"><path d="M20.9 11h-5.4c-1-1.8-2.9-3-5-3s-4 1.2-5 3h-1c-.1-.2-.1-.5-.1-.7 0-1.5 1.3-2.8 2.8-2.8h.4l.9.1.2-.9c.5-1.9 2.2-3.3 4.1-3.3 1.9 0 3.6 1.3 4.1 3.3l.2.8h1.1c1.5 0 2.8 1.3 2.8 2.8 0 .2 0 .5-.1.7m-3.3 5.5H3.1c-.1-.2-.1-.4-.1-.5 0-1.3 1.1-2.4 2.4-2.4h.4l.9.1.2-.9c.4-1.7 1.9-2.9 3.6-2.9 1.7 0 3.1 1.2 3.6 2.9l.2.8.8-.1h.1c1.3 0 2.4 1.1 2.4 2.4.1.2 0 .4 0 .6m1.1-11c-1-2.4-3.3-4-5.8-4s-4.8 1.6-5.8 4c-2.6.1-4.7 2.2-4.7 4.8 0 .7.2 1.4.5 2.1C1.7 13.2 1 14.5 1 16c0 .7.2 1.3.5 2l.3.5h17.1l.3-.5c.3-.6.5-1.3.5-2 0-1.1-.4-2.2-1.2-3h3.7l.3-.5c.4-.7.5-1.4.5-2.2 0-2.5-1.9-4.5-4.3-4.8" fill-rule="evenodd" clip-rule="evenodd"/><defs><filter id="a" filterUnits="userSpaceOnUse" x="0" y="0" width="24" height="24"><feColorMatrix values="1 0 0 0 0 0 1 0 0 0 0 0 1 0 0 0 0 0 1 0"/></filter></defs><mask maskUnits="userSpaceOnUse" x="0" y="0" width="24" height="24" id="b"><g filter="url(#a)"><path d="M20.9 11h-5.4c-1-1.8-2.9-3-5-3s-4 1.2-5 3h-1c-.1-.2-.1-.5-.1-.7 0-1.5 1.3-2.8 2.8-2.8h.4l.9.1.2-.9c.5-1.9 2.2-3.3 4.1-3.3 1.9 0 3.6 1.3 4.1 3.3l.2.8h1.1c1.5 0 2.8 1.3 2.8 2.8 0 .2 0 .5-.1.7m-3.3 5.5H3.1c-.1-.2-.1-.4-.1-.5 0-1.3 1.1-2.4 2.4-2.4h.4l.9.1.2-.9c.4-1.7 1.9-2.9 3.6-2.9 1.7 0 3.1 1.2 3.6 2.9l.2.8.8-.1h.1c1.3 0 2.4 1.1 2.4 2.4.1.2 0 .4 0 .6m1.1-11c-1-2.4-3.3-4-5.8-4s-4.8 1.6-5.8 4c-2.6.1-4.7 2.2-4.7 4.8 0 .7.2 1.4.5 2.1C1.7 13.2 1 14.5 1 16c0 .7.2 1.3.5 2l.3.5h17.1l.3-.5c.3-.6.5-1.3.5-2 0-1.1-.4-2.2-1.2-3h3.7l.3-.5c.4-.7.5-1.4.5-2.2 0-2.5-1.9-4.5-4.3-4.8" fill-rule="evenodd" clip-rule="evenodd" fill="#fff"/></g></mask><g mask="url(#b)"><path fill-rule="evenodd" clip-rule="evenodd" fill="transparent" d="M0 0h24v24H0z"/></g></g></svg>