<svg xmlns="http://www.w3.org/2000/svg" viewBox="0 0 24 24"><path d="M7.5 2.4C7.8 1.3 8.9.7 9.9 1c1 .3 1.6 1.4 1.3 2.4-.2 1.2-1.3 1.8-2.3 1.5-1.1-.3-1.7-1.4-1.4-2.5zm12 16.6h1.9c.3 0 .6.3.7.6 0 0-3.5 1.2-3.7 1.3 0 0-.8-2-2.3-6h-5.2c-.9.1-1.6-.6-1.7-1.5l-.8-7c-.1-.8.2-.9 1.1-1 .5-.1 1.2-.2 1.5-.1.2.1.6.2.7.7l.3 3h4v2h-4l.3 2H17c.1 0 .2 0 .3.1.1.1.3.2.4.4 0 .1.1.2.1.2 1.1 3.5 1.7 5.3 1.7 5.3zM4 15c0-2 .9-3.8 2.2-5.1.4-.4.8-.7 1.2-.9l.3 2.3C6.6 12.2 6 13.5 6 15c0 2.8 2.2 5 5 5 1.8 0 3.5-1 4.3-2.5l1 2C15 21 13.1 22 11 22c-3.9 0-7-3.1-7-7z" fill-rule="evenodd" clip-rule="evenodd"/></svg>