<svg xmlns="http://www.w3.org/2000/svg" viewBox="0 0 24 24"><path d="M16 22H9v.5c0 .8-.7 1.5-1.5 1.5S6 23.3 6 22.5v-.8c-1.1-.5-2-1.7-2-3.1v-13C4 3.1 5.7 1 8.1 1h8.8C19.3 1 21 3.1 21 5.5v11.9c0 1.4-.9 3.2-2 4.1v1c0 .8-.7 1.5-1.5 1.5s-1.5-.7-1.5-1.5V22zM7 9c-.6 0-1 .4-1 1v4c0 .6.4 1 1 1h11c.6 0 1-.4 1-1v-4c0-.6-.4-1-1-1H7zm1-6c-.6 0-1 .4-1 1v2c0 .6.4 1 1 1h9c.6 0 1-.4 1-1V4c0-.6-.4-1-1-1H8zm-.5 14c-.9 0-1.5.6-1.5 1.4v.1c0 .9.6 1.5 1.4 1.5h.1c.9 0 1.5-.6 1.5-1.4v-.1c0-.9-.6-1.5-1.5-1.5zm10 0c-.9 0-1.5.6-1.5 1.4v.1c0 .8.6 1.4 1.4 1.4h.1c.8 0 1.4-.6 1.4-1.4v-.1c.1-.8-.5-1.4-1.4-1.4z" fill-rule="evenodd" clip-rule="evenodd"/></svg>