<svg xmlns="http://www.w3.org/2000/svg" viewBox="0 0 24 24"><path d="M6 20v1.5c0 .8-.7 1.5-1.5 1.5S3 22.3 3 21.5V20c-.7 0-1-.3-1-1v-5c0-.7.1-1.7.3-2.9 1-4.5 1.7-6.9 2.2-7.5.4-.4.9-.6 1.6-.6h11.6c.7 0 1.2.2 1.6.6.5.6 1.3 3.1 2.2 7.5.3 1.3.5 2.3.5 2.9 0 .6.1 3.9 0 5-.1 1-.7 1-1 1v1.5c0 .8-.7 1.5-1.5 1.5s-1.5-.7-1.5-1.5V20H6zm2-5v1h8v-1H8zm0-2v1h8v-1H8zM5.4 5.6c-.6 1.1-1 4.8-1 5.4h15.1c0-.7-.6-4.6-1-5.4-.4-.4-.8-.6-1.5-.6H6.8c-.7 0-1.1.2-1.4.6zM19.5 16c.8 0 1.5-.7 1.5-1.5s-.7-1.5-1.5-1.5-1.5.7-1.5 1.5.7 1.5 1.5 1.5zm-15 0c.8 0 1.5-.7 1.5-1.5S5.3 13 4.5 13 3 13.7 3 14.5 3.7 16 4.5 16z" fill-rule="evenodd" clip-rule="evenodd"/></svg>