<svg xmlns="http://www.w3.org/2000/svg" viewBox="0 0 24 24"><path d="M13.6 9c.3 0 .7.3.7.4l2.7 4.4c-.6.3-1 0-1.5-.5l-.1-.1-1.7-2.2v3l2.4 7.1s.6.2.9.4c.3.1.3.4.3.5H15l-2.8-6.5-.4.6v1.5c0 .2-.1.3-.2.3h-.9l-1.4 2.7s.4.5.6.7c.2.2.1.5.1.6l-2.3-1.1L9 18H7.5c-.3 0-.5-.2-.5-.4v-2.1c0-.2.1-.4.4-.5h3.1l.6-1v-3l-1 1v2.5c-.9-.2-1-.9-1-1v-.3-1.8c0-.2.1-.4.2-.5l.1-.1 1.1-1.3s.2-.3.6-.4L11 9h2.6zM16 8h6v.5h-6V8zM8 8v.5H2V8h6zm4.3-2.7c.8 0 1.5.7 1.5 1.5s-.7 1.5-1.5 1.5-1.5-.7-1.5-1.5.7-1.5 1.5-1.5zM8.6 7c0 .1 0 .2-.1.2s-.2 0-.2-.1 0-.2.1-.2c.1-.1.2 0 .2.1zm-4.4-.1c0 .1 0 .2-.1.2s-.2 0-.3-.1c0-.1 0-.2.1-.2.2-.1.3 0 .3.1zm.5 0c0 .1 0 .2-.1.2s-.2 0-.2-.1 0-.2.1-.2c.1-.1.2 0 .2.1zM2.8 3.6h.7l1.2 1.9 3.5.1c.3 0 .9.4 1 .6 0 .2-.5.3-.8.3h-.1l-5.8-.1c-.8-.1-1.5-.3-2-.6l-.2-.1-.2-1.6.6.1.8 1.3 1.8.1-.5-2zm15-.5l1.8 1.4 3.4-1c.2-.1.9 0 1 .2.1.2-.3.4-.6.5h-.1L17.7 6c-1 .3-1.7.3-2.2.2h-.1l-.8-1.5.7-.2 1.2 1 1.7-.5-1-1.7.6-.2z" fill-rule="evenodd" clip-rule="evenodd"/></svg>