<?xml version="1.0" encoding="utf-8"?>
<!-- Generator: Adobe Illustrator 23.0.4, SVG Export Plug-In . SVG Version: 6.00 Build 0)  -->
<svg version="1.1" id="Layer_1" xmlns="http://www.w3.org/2000/svg" xmlns:xlink="http://www.w3.org/1999/xlink" x="0px" y="0px"
	 viewBox="0 0 18 22" style="enable-background:new 0 0 18 22;" xml:space="preserve">
<style type="text/css">
	.st0{fill-rule:evenodd;clip-rule:evenodd;}
</style>
<path class="st0" d="M12,20c-0.3,1.1-1.5,2-3,2s-2.7-0.9-3-2l0,0H12z M9,0c1.1,0,2,0.9,2,2c0,0.1,0,0.2,0,0.3c1.1,0.3,2.1,0.9,3,1.8
	c1.3,1.2,2,2.9,2,4.6L16,9v6c0,0.8,0.6,1.4,1.4,1.5l0.1,0H18V19H0v-2.5h0.5c0.8,0,1.4-0.6,1.5-1.4L2,15V9c0-3.1,2.1-5.8,5-6.7
	C7,2.2,7,2.1,7,2C7,0.9,7.9,0,9,0z"/>
</svg>
