<svg xmlns="http://www.w3.org/2000/svg" viewBox="0 0 24 24"><path d="M19.1 5.2c.6-.3 1.3 0 1.6.6l2.8 4.5c.1.3.1.6 0 .9 0 .1-.1.3-.1.4l.3-.1.3 1.1-11 3.1 2.9 7.3h-6l2.5-7.1-5.3 1.5c-.4 1.2-1 3.2-1.1 3.2-.2.3-.6.4-.9.2-.3-.2-.3-.6-.2-.9l.4-2-3.6 1-.3-1.1c-.8 0-1.5-.7-1.5-1.5 0-.3 0-.6.2-.9l3.6-3.9c.4-.5 1.1-.7 1.6-.3l3.3 3.4c.3.2.4.6.2.8-.2.3-.6.4-.9.2l-2.6-2.2L3.9 15l3 .5c.3.1.5.3.5.6l8.6-2.4c0-.9.2-3.5.2-3.5-.1-.5.2-.9.7-1H20l-1.2-1.8-2.9 1.7c-.3.2-.7 0-.9-.4-.1-.3 0-.7.3-.8l3.8-2.7zm-1.2 6l-.6 2.2 3.9-1.1-3.3-1.1zM7.7 8.5c.7.5.9 1.5.4 2.2s-1.4.9-2.1.4-.9-1.5-.4-2.2S7 8 7.7 8.5zm11.6-5.6c.4.8 0 1.7-.7 2.1-.8.4-1.7 0-2-.8-.4-.8 0-1.7.7-2.1.7-.3 1.6 0 2 .8z"/></svg>