<svg xmlns="http://www.w3.org/2000/svg" viewBox="0 0 24 24"><path d="M6.5 12.9c0 .7.6 1.4 1.4 1.4s1.4-.6 1.4-1.4-.6-1.4-1.4-1.4-1.4.6-1.4 1.4zm8.2 0c0 .7.6 1.4 1.4 1.4.8 0 1.4-.6 1.4-1.4s-.6-1.4-1.4-1.4c-.7 0-1.4.6-1.4 1.4zm.1 2.9c.4-.3.9-.2 1.1.1.3.3.2.9-.1 1.1-1 .8-2.5 1.3-3.8 1.3s-2.8-.5-3.8-1.3c-.4-.3-.4-.8-.1-1.1.3-.3.8-.4 1.1-.1.6.4 1.7.9 2.8.9s2.2-.5 2.8-.9zm8.2-5.7c0-1.5-1.2-2.7-2.8-2.7-1 0-1.9.6-2.4 1.4-1.4-.8-3.1-1.3-5-1.4l1.6-3.6 3.1.9c.3.8 1 1.4 1.9 1.4 1.1 0 2.1-.9 2.1-2s-.9-2-2.1-2c-.8 0-1.5.4-1.8 1.1l-3.5-1c-.4-.1-.8.1-1 .4L11 7.5c-1.8.1-3.5.6-4.8 1.3-.5-.8-1.4-1.4-2.5-1.4C2.2 7.4 1 8.6 1 10.1c0 1.1.7 2.1 1.6 2.5-.2.5-.3 1-.3 1.6C2.4 18 6.7 21 12 21c5.3 0 9.6-3 9.6-6.8 0-.5-.1-1.1-.3-1.6 1-.4 1.7-1.3 1.7-2.5zm-3.4-6.8c.4 0 .8.3.8.8s-.4.7-.8.7-.8-.3-.8-.8.3-.7.8-.7zM2.4 10.1c0-.7.6-1.4 1.4-1.4.5 0 1 .3 1.2.8-.7.5-1.3 1.2-1.8 1.8-.5-.1-.8-.6-.8-1.2zm9.6 9.3c-4.4 0-8-2.3-8-5.2C4 11.4 7.6 9 12 9s8 2.3 8 5.2c0 2.9-3.6 5.2-8 5.2zm8.8-8c-.4-.7-1-1.3-1.8-1.8.2-.5.7-.8 1.2-.8.8 0 1.4.6 1.4 1.4 0 .5-.3 1-.8 1.2z"/></svg>