<svg xmlns="http://www.w3.org/2000/svg" viewBox="0 0 24 24"><path d="M19.1 19.7c.1.1.2.2.2.3v2c-2.1 1.2-4.6 2-7.3 2s-5.1-.7-7.2-2.1V20s0-.2.2-.4.6-.2.5-.2h13.1c.1.2.3.2.5.3zM12 12.6c1.8 0 3.2 1.4 3.2 3.2 0 1.8-1.4 3.2-3.2 3.2s-3.2-1.4-3.2-3.2c0-1.8 1.5-3.2 3.2-3.2zm-7.6 4.7c.2 0 .4.2.4.4s-.2.4-.4.4c-.2.1-.4-.1-.4-.3 0-.3.2-.5.4-.5zm2.5 0c.2 0 .4.2.4.4s-.2.4-.4.4-.4-.2-.4-.4.2-.4.4-.4zm10.2 0c.2 0 .4.2.4.4s-.2.4-.4.4-.4-.2-.4-.4c-.1-.2.1-.4.4-.4zm2.5 0c.2 0 .4.2.4.4s-.2.4-.4.4-.4-.2-.4-.4c-.1-.2.1-.4.4-.4zM7.5 15.1c.2 0 .4.2.4.4s-.2.4-.4.4-.5-.1-.5-.4c0-.2.2-.4.5-.4zm9.1 0c.2 0 .4.2.4.4s-.2.4-.4.4-.4-.2-.4-.4c-.1-.2.1-.4.4-.4zm2.2 0c.2 0 .4.2.4.4s-.2.4-.4.4-.4-.2-.4-.4.2-.4.4-.4zm-13.6 0c.2 0 .4.2.4.4s-.2.4-.4.4-.4-.2-.4-.4.2-.4.4-.4zm13-2c.2 0 .4.2.4.4s-.2.4-.4.4-.4-.2-.4-.4c-.1-.2.1-.4.4-.4zm-12.4 0c.2 0 .4.2.4.4s-.2.4-.4.4-.4-.2-.4-.4.2-.4.4-.4zm2.1 0c.2 0 .4.2.4.4s-.2.4-.4.4-.4-.2-.4-.4.1-.4.4-.4zm8.2 0c.2 0 .4.2.4.4s-.2.4-.4.4-.4-.2-.4-.4.2-.4.4-.4zm-7.8-2c.2 0 .4.2.4.4s-.2.4-.4.4-.4-.2-.4-.4.2-.4.4-.4zm-1.8 0c.2 0 .4.2.4.4s-.2.4-.4.4c-.3.1-.5-.1-.5-.3 0-.3.2-.5.5-.5zm11 0c.2 0 .4.2.4.4s-.2.4-.4.4-.4-.2-.4-.4.2-.4.4-.4zm-1.8 0c.2 0 .4.2.4.4s-.2.4-.4.4-.4-.2-.4-.4.1-.4.4-.4zm-1.9 0c.2 0 .4.2.4.4s-.2.4-.4.4-.4-.2-.4-.4.2-.4.4-.4zm-3.6 0c.2 0 .4.2.4.4s-.2.4-.4.4-.4-.2-.4-.4c-.1-.2.1-.4.4-.4zm1.8 0c.2 0 .4.2.4.4s-.2.4-.4.4-.4-.2-.4-.4.2-.4.4-.4zm1.6-1.8c.2 0 .4.2.4.4s-.2.4-.4.4-.4-.2-.4-.4.2-.4.4-.4zm-3.2 0c.2 0 .4.2.4.4s-.2.4-.4.4-.4-.2-.4-.4.1-.4.4-.4zm-3.3 0c.2 0 .4.2.4.4s-.2.4-.4.4-.4-.2-.4-.4.1-.4.4-.4zm8.2 0c.2 0 .4.2.4.4s-.2.4-.4.4-.4-.2-.4-.4.1-.4.4-.4zm-6.6 0c.2 0 .4.2.4.4s-.2.4-.4.4-.4-.1-.4-.3.2-.5.4-.5zm3.3 0c.2 0 .4.2.4.4s-.2.4-.4.4-.4-.2-.4-.4.2-.4.4-.4zm4.9 0c.2 0 .4.2.4.4s-.2.4-.4.4-.4-.2-.4-.4.2-.4.4-.4zm-2-1.6c.2 0 .4.2.4.4s-.2.4-.4.4-.4-.2-.4-.4.2-.4.4-.4zm-5.8 0c.2 0 .4.2.4.4s-.2.4-.4.4-.4-.2-.4-.4c-.1-.2.1-.4.4-.4zm-1.5 0c.2 0 .4.2.4.5 0 .2-.2.4-.4.4s-.4-.2-.4-.4c0-.3.2-.5.4-.5zm4.4 0c.2 0 .4.2.4.4s-.2.4-.4.4-.4-.2-.4-.4.2-.4.4-.4zm-1.5 0c.2 0 .4.2.4.4s-.2.4-.4.4-.4-.2-.4-.4.2-.4.4-.4zm5.9 0c.2 0 .4.2.4.4s-.2.4-.4.4-.4-.2-.4-.4.2-.4.4-.4zm-2.9 0c.2 0 .4.2.4.4s-.2.4-.4.4-.4-.2-.4-.4c-.1-.2.1-.4.4-.4zm1.1-1.5c.2 0 .4.2.4.4s-.2.4-.4.4-.4-.2-.4-.4c0-.3.2-.4.4-.4zm-1.3 0c.2 0 .4.2.4.4s-.2.4-.4.4-.4-.2-.4-.4c0-.3.2-.4.4-.4zm-2.6 0c.2 0 .4.2.4.4s-.2.4-.4.4-.4-.2-.4-.4c0-.3.2-.4.4-.4zm-1.3 0c.2 0 .4.2.4.4s-.2.4-.4.4-.4-.2-.4-.4c0-.3.2-.4.4-.4zm-1.3 0c.2 0 .4.2.4.4.1.2-.1.4-.4.4-.2 0-.4-.2-.4-.4 0-.3.2-.4.4-.4zm7.8 0c.2 0 .4.2.4.4s-.2.4-.4.4-.4-.2-.4-.4c0-.3.1-.4.4-.4zM12 6.1c.2 0 .4.2.4.4 0 .3-.2.5-.4.5s-.4-.2-.4-.4c0-.3.2-.5.4-.5zm-1.1-1.4c.2 0 .4.2.4.4s-.2.4-.4.4-.4-.2-.4-.4.2-.4.4-.4zm-1.1 0c.2 0 .4.2.4.4s-.2.4-.4.4-.4-.2-.4-.4.1-.4.4-.4zm-1.1 0c.2 0 .4.2.4.4s-.2.4-.4.4-.5-.2-.5-.4.2-.4.5-.4zm4.4 0c.2 0 .4.2.4.4s-.2.4-.4.4-.4-.2-.4-.4.2-.4.4-.4zm1.2 0c.2 0 .4.2.4.4s-.2.4-.4.4-.4-.2-.4-.4.1-.4.4-.4zm1.1 0c.2 0 .4.2.4.4s-.2.4-.4.4-.4-.2-.4-.4.1-.4.4-.4zm-3.4 0c.2 0 .4.2.4.4s-.2.4-.4.4-.4-.2-.4-.4.2-.4.4-.4zm.7-4.7v1.7l3 1.8v.6H8.3v-.5l3-1.8V0h1.4z"/></svg>