<svg xmlns="http://www.w3.org/2000/svg" viewBox="0 0 24 24"><path d="M3.7 11.1c0 .2.2.4.4.4h3.4c.2 0 .4-.2.4-.4V9.8c0-.2-.2-.4-.4-.4H4c-.2 0-.4.2-.4.4v1.3zm.4 4.9c.2.3.5.5.8.5.5 0 .9-.4.9-.9s-.4-.9-.9-.9-.9.4-.9.9c0 .1.1.3.1.4zm5-4.9c0 .2.2.4.4.4h3.4c.2 0 .4-.2.4-.4V9.8c0-.2-.2-.4-.4-.4H9.5c-.2 0-.4.2-.4.4v1.3zm5.6-1.3V11c0 .2.2.4.4.4h3.7c.1 0 .2-.1.2-.2v-.1l-1.1-1.3c-.1-.2-.3-.3-.6-.3h-2.2c-.2 0-.4.1-.4.3zm1.9 6.2c.2.3.5.5.8.5.5 0 .9-.4.9-.9s-.4-.9-.9-.9-.9.4-.9.9c-.1.1 0 .3.1.4zM1.2 15h.2V9.5C1.4 8 2.9 8 2.9 8h14.7c.7 0 1.2.8 1.2.8l3.6 4.5s.3.3.3 1.5v.2h.1c.1 0 .2.1.2.2v.6c0 .1-.1.2-.2.2h-3.3c-.2 1.2-1.4 1.9-2.6 1.7-.9-.2-1.5-.8-1.7-1.7H7.1c-.2 1.2-1.4 1.9-2.6 1.7-.8-.2-1.5-.8-1.7-1.7H1.2c-.1 0-.2-.1-.2-.2v-.6c0-.1.1-.2.2-.2z" fill-rule="evenodd" clip-rule="evenodd"/></svg>