<svg xmlns="http://www.w3.org/2000/svg" viewBox="0 0 24 24"><path d="M20.5 16.7c.4.6.2 1.1 0 1.6s-.4 1 0 1.6l.1.1h-.9c-.4-.5-.2-1.1 0-1.6s.4-1 0-1.6l-.1-.1h.9zm1.6 0c.4.6.2 1.1 0 1.6s-.4 1 0 1.6l.1.1h-.9c-.4-.5-.2-1.1 0-1.6s.4-1 0-1.6l-.1-.1h.9zm1.6 0c.4.6.2 1.1 0 1.6s-.4 1 0 1.6l.1.1h-.9c-.4-.5-.2-1-.1-1.5v-.1c.2-.5.4-1 0-1.6l-.1-.1h1zm-4.8 0c.4.6.2 1.1 0 1.6s-.4 1 0 1.6l.1.1H0v-3.3h18.9zM10 4c0 3.1 2.5 5.6 5.6 5.6 1.7 0 3.4.7 4.6 1.9s1.9 2.8 1.9 4.5h-.9c0-3-2.5-5.5-5.6-5.5-1.7 0-3.4-.7-4.6-1.9S9.1 5.8 9.1 4.1h.9V4zm1.6 0c0 2.2 1.8 4 4 4s4.2.8 5.8 2.3c1.5 1.5 2.4 3.5 2.4 5.7h-.9c0-3.9-3.2-7.1-7.2-7.1-1.3 0-2.5-.5-3.5-1.4-.9-.9-1.4-2.1-1.4-3.4l.8-.1zM8.4 4c0 4 3.2 7.2 7.2 7.2 1.3 0 2.5.5 3.5 1.4.9.9 1.4 2.1 1.4 3.4h-.9c0-2.2-1.8-3.9-4-3.9s-4.2-.8-5.8-2.3C8.3 8.2 7.5 6.2 7.5 4h.9z"/></svg>