<svg xmlns="http://www.w3.org/2000/svg" viewBox="0 0 24 24"><path d="M21 4.8V15c0 1.6-1.6 3.9-3.3 3.9H7.3C5.7 19 4 17.7 4 16.1V4.9C4 2.8 5.7 1 8.1 1h8.8C19.3 1 21 2.8 21 4.8zM7.3 20l-1.8 4H3l3-4h1.3zm9.7 0h1.3l3 4h-2.4L17 20zM10 3h5V2h-5v1zm8.3 1H6.7c-.4 0-.7.5-.7 1.1v5.8c0 .6.3 1.1.7 1.1h11.6c.4 0 .7-.5.7-1.1V5.1c0-.6-.3-1.1-.7-1.1zM7.5 14c-.9 0-1.5.6-1.5 1.4v.1c0 .9.6 1.5 1.4 1.5h.1c.9 0 1.5-.6 1.5-1.4v-.1c0-.9-.6-1.5-1.5-1.5zm10 0c-.9 0-1.5.6-1.5 1.4v.1c0 .8.6 1.4 1.4 1.4h.1c.8 0 1.4-.6 1.4-1.4v-.1c.1-.8-.5-1.4-1.4-1.4z" fill-rule="evenodd" clip-rule="evenodd"/></svg>