<svg xmlns="http://www.w3.org/2000/svg" viewBox="0 0 24 24"><path d="M8.1 21.4c.6 0 1 .4 1 1s-.4 1-1 1-1-.4-1-1c0-.5.5-1 1-1zm7 0c.6 0 1 .4 1 1s-.4 1-1 1-1-.4-1-1c0-.5.5-1 1-1zM12.6.4c.8 0 1.5.7 1.5 1.5v4.5h2c.6 0 1 .4 1 1v12c0 .6-.4 1-1 1h-9c-.6 0-1-.4-1-1v-12c0-.6.4-1 1-1h2V1.9c0-.8.7-1.5 1.5-1.5h2zm1.5 7l-.9.8c-.1 0-.1.1-.1.2v2.8c0 .1.1.2.2.2h1.6c.1 0 .2-.1.2-.2V8.4c0-.1 0-.1-.1-.2l-.9-.8zm-1.7-6h-1.6c-.4 0-.6.3-.7.6v4.4h3V2.1c0-.4-.3-.7-.7-.7z" fill-rule="evenodd" clip-rule="evenodd"/></svg>