<svg xmlns="http://www.w3.org/2000/svg" viewBox="0 0 24 24"><path d="M23 15.3c0-2.9-2.9-5.3-6.5-5.3S10 12.4 10 15.3s2.9 5.3 6.5 5.3c.6 0 1.2-.1 1.7-.2l3.5 1.5-1.2-2.5C22 18.5 23 17 23 15.3zM14 14c-.6 0-1-.4-1-1s.4-1 1-1 1 .4 1 1-.4 1-1 1zm4 0c-.6 0-1-.4-1-1s.4-1 1-1 1 .4 1 1-.4 1-1 1zM9.1 2C13 2 16.3 4.5 17 7.8c-.4-.1-.8-.1-1.2-.1-4.5 0-8.1 3.2-8.1 7.1 0 .5.1.9.1 1.3-.7-.1-1.3-.3-2-.5L3 17l1.1-2.3C2.2 13.4 1 11.4 1 9.1 1 5.2 4.6 2 9.1 2zM6.4 7.4c.6 0 1-.5 1-1.1s-.5-1.1-1-1.1-1 .5-1 1.1.4 1.1 1 1.1zm5.4 0c.6 0 1-.5 1-1.1s-.5-1.1-1-1.1c-.6 0-1 .5-1 1.1s.4 1.1 1 1.1z"/></svg>